<?xml version="1.0" encoding="utf-8"?>
<!-- Generator: Adobe Illustrator 22.0.1, SVG Export Plug-In . SVG Version: 6.00 Build 0)  -->
<svg version="1.1" id="Layer_1" xmlns="http://www.w3.org/2000/svg" xmlns:xlink="http://www.w3.org/1999/xlink" x="0px" y="0px"
	 viewBox="0 0 135 135" style="enable-background:new 0 0 135 135;" xml:space="preserve">
<style type="text/css">
	.st0{fill:#383F4C;}
	.st1{fill:#383F4C;stroke:#383F4C;stroke-width:4.5;stroke-linecap:round;stroke-linejoin:round;stroke-miterlimit:10;}
</style>
<g>
	<path class="st0" d="M96.3,16c-4-6.4-10.8-10.9-19.9-12.8C68.8,1.7,60.2,2,52.9,4.2C34.1,9.8,22.1,26.2,23.5,43.9
		c0.3,3.1,0.9,6.1,1.9,9c2.6,7.6,8.4,15.6,16.4,15.6c1.1,0,2.2-0.1,3.4-0.5C54,65.6,57,59.5,60,53.6c1.6-3.3,3.2-6.5,5.8-9
		c3.3-3.3,8.4-4.5,13.8-5.7c4.2-1,8.5-2,12.1-4c3.2-1.9,5.5-4.8,6.4-8.3C98.8,23,98.2,19.3,96.3,16z M93.6,25.4
		c-0.6,2.3-2.1,4.2-4.2,5.5c-3,1.8-6.8,2.6-10.8,3.6c-2.8,0.6-5.6,1.3-8.2,2.3c-0.1-0.6-0.4-1-0.6-1.3c-1.9-2.3-5.6-0.7-8.5,1.7
		c-1.3,1-2.4,2.2-3.1,3.4c-1.6,2.4-0.9,3.9-0.3,4.6c0.2,0.3,0.6,0.7,1.3,0.9c-1.2,1.8-2.1,3.8-3,5.6c-2.7,5.5-5.1,10.2-11.9,12.1
		c-8.8,2.4-13.5-9.8-14.4-12.3c-0.9-2.5-1.4-5.2-1.7-7.9c-1.3-15.6,9.5-30,26.1-35c4.4-1.3,8.6-1.9,12.5-1.9
		c12.7,0,22.2,6,25.7,11.8C93.8,20.6,94.2,23.1,93.6,25.4z"/>
	<path class="st0" d="M110.2,82.5c-0.9-3-2.1-5.8-3.6-8.4c-4.7-7.9-13.3-15.5-22.4-11c-8.1,4.1-9.9,10.6-11.6,17
		c-1,3.6-1.9,7-3.9,10c-2.6,3.9-7.3,6-12.4,8.3c-3.9,1.8-7.9,3.6-11,6.4c-2.8,2.5-4.4,5.8-4.6,9.4c-0.2,3.6,1.1,7.1,3.7,9.9
		c5.1,5.5,12.8,8.5,22,8.6c0.1,0,0.3,0,0.4,0c7.7,0,15.8-2,22.4-5.5c14-7.5,22.3-21,22.3-35C111.6,89,111.1,85.7,110.2,82.5z
		 M87.1,123.2c-17.3,9.2-33.5,4.3-39.4-2.1c-1.7-1.9-2.6-4.2-2.5-6.7c0.1-2.4,1.2-4.6,3.1-6.2c2.6-2.3,6.2-3.9,9.9-5.6
		c2.6-1.2,5.2-2.4,7.6-3.8c0.2,0.4,0.5,0.8,0.8,1.1c0.4,0.3,1,0.7,1.9,0.7c0.7,0,1.6-0.2,2.7-0.9c1.1-0.7,2.3-1.8,3.4-3.1
		c2.4-2.8,4.1-6.6,1.8-8.5c-0.4-0.4-0.9-0.6-1.4-0.7c0.8-2,1.3-4.1,1.8-6.1c1.6-5.9,3-11,9.3-14.2c1.2-0.6,2.5-0.9,3.7-0.9
		c6.5,0,11.7,8.2,12.8,10.1c1.4,2.3,2.4,4.8,3.2,7.4C110.2,98.8,102.5,115,87.1,123.2z"/>
	<path class="st0" d="M95.3,106.4c-0.4,0-0.8-0.1-1.2-0.3c-1.1-0.7-1.4-2-0.7-3.1c0.3-0.5,7-11.5-0.3-22.3c-0.7-1-0.4-2.4,0.6-3.1
		c1-0.7,2.4-0.4,3.1,0.6c8.9,13.3,0.7,26.7,0.4,27.2C96.8,106,96.1,106.4,95.3,106.4z"/>
	<circle class="st0" cx="68.9" cy="17.1" r="2.3"/>
	<circle class="st0" cx="74.3" cy="29" r="2.3"/>
	<circle class="st0" cx="82.9" cy="20.9" r="2.3"/>
</g>
</svg>
