<?xml version="1.0" encoding="utf-8"?>
<!-- Generator: Adobe Illustrator 22.0.1, SVG Export Plug-In . SVG Version: 6.00 Build 0)  -->
<svg version="1.1" id="Layer_1" xmlns="http://www.w3.org/2000/svg" xmlns:xlink="http://www.w3.org/1999/xlink" x="0px" y="0px"
	 viewBox="0 0 135 135" style="enable-background:new 0 0 135 135;" xml:space="preserve">
<style type="text/css">
	.st0{fill:#383F4C;}
	.st1{fill:#383F4C;stroke:#383F4C;stroke-width:4.5;stroke-linecap:round;stroke-linejoin:round;stroke-miterlimit:10;}
</style>
<g>
	<path class="st0" d="M91.9,85.8c-0.3-0.8-0.5-1.5-0.8-2.3c-1.4-4.2-2.9-8.5-3.5-12.7c-0.1-0.9-0.2-1.9-0.2-2.9c0-0.2,0-0.5,0-0.8
		c0.1-3.6,1-7.3,1.8-10.4c0.6-2.4,1.4-4.6,2.1-6.9c2.2-7.1,4.4-13.9,3.4-22.3c-1-8.5-4.7-15.7-10.5-20.3C78.7,2.8,71.4,1,63.4,1.9
		C48.6,3.7,38.2,14.7,38.1,28.7c0,6.6,1.7,13,3.4,19.1c0.8,3.1,1.7,6.3,2.3,9.4c1.6,8.1,1.3,17.4-0.8,27c-0.2,0.9-0.4,1.9-0.6,2.8
		c-1.4,6-2.8,12.3-2.5,18.9c0.9,17.1,16.9,27.4,31.8,27.5h0.3c14.1,0,23.8-8.8,24.7-22.6C97.4,101.8,94.4,92.9,91.9,85.8z M72,128.8
		h-0.2c-16.4-0.1-26.8-11.9-27.4-23.2c-0.3-5.9,1.1-11.9,2.4-17.6c0.2-1,0.4-1.9,0.6-2.9C49.7,75,50,65,48.3,56.3
		c-0.6-3.3-1.5-6.5-2.4-9.7c-1.7-6.1-3.2-11.9-3.2-17.9c0-11.7,8.8-20.9,21.2-22.4c1.2-0.1,2.4-0.2,3.5-0.2c5.4,0,10.3,1.6,14.1,4.6
		c4.9,3.8,8,10,8.8,17.3c0.9,7.5-1,13.5-3.2,20.5c-0.7,2.2-1.4,4.6-2.1,7c-0.5,1.7-0.9,3.5-1.3,5.5C83.3,63,83,65,83,67
		c0,1.5,0,2.9,0.2,4.3c0.6,4.7,2.2,9.2,3.7,13.6c0.3,0.8,0.5,1.5,0.8,2.3c2.9,8.6,5.1,15.8,4.6,23.2c0,0.6-0.1,1.2-0.2,1.7H77.6
		v-8.4h7c1.2,0,2.2-1,2.2-2.2c0-1.2-1-2.2-2.2-2.2h-7V85c0-1.2-1-2.2-2.2-2.2c-1.2,0-2.2,1-2.2,2.2v14.3H58.3v-21h10.2
		c1.2,0,2.2-1,2.2-2.2c0-1.2-1-2.2-2.2-2.2H58.3v-4.6c0-1.2-1-2.2-2.2-2.2c-1.2,0-2.2,1-2.2,2.2v30.1h-4.2c-1.2,0-2.2,1-2.2,2.2
		c0,1.2,1,2.2,2.2,2.2h4.2v14.3c0,1.2,1,2.2,2.2,2.2c1.2,0,2.2-1,2.2-2.2v-14.3h14.8v8.4h-6.9c-1.2,0-2.2,1-2.2,2.2
		c0,1.2,1,2.2,2.2,2.2h6.9v7c0,1.2,1,2.2,2.2,2.2c1.2,0,2.2-1,2.2-2.2v-7h13.5C88,125.5,79.7,128.8,72,128.8z"/>
	<path class="st0" d="M51,36.9c-0.9,0-1.7-0.5-2-1.3C47.1,31.5,46,22,55.2,15.3c1-0.7,2.4-0.5,3.1,0.5c0.7,1,0.5,2.4-0.5,3.1
		c-8.5,6.1-4.9,14.4-4.8,14.7c0.5,1.1,0,2.5-1.1,3C51.6,36.8,51.3,36.9,51,36.9z"/>
	<circle class="st0" cx="72.3" cy="43.2" r="2.3"/>
	<circle class="st0" cx="78.9" cy="31.4" r="2.3"/>
	<circle class="st0" cx="75.4" cy="19.8" r="2.3"/>
</g>
</svg>
