<?xml version="1.0" encoding="utf-8"?>
<!-- Generator: Adobe Illustrator 22.0.1, SVG Export Plug-In . SVG Version: 6.00 Build 0)  -->
<svg version="1.1" id="Layer_1" xmlns="http://www.w3.org/2000/svg" xmlns:xlink="http://www.w3.org/1999/xlink" x="0px" y="0px"
	 viewBox="0 0 135 135" style="enable-background:new 0 0 135 135;" xml:space="preserve">
<style type="text/css">
	.st0{fill:#383F4C;}
	.st1{fill:#383F4C;stroke:#383F4C;stroke-width:4.5;stroke-linecap:round;stroke-linejoin:round;stroke-miterlimit:10;}
</style>
<g>
	<path class="st0" d="M58.6,4.9c-0.9-0.8-1.9-1.5-2.8-2.2c-0.5-0.3-1-0.4-1.5-0.4c-0.4,0-0.8,0.1-1.2,0.4
		C38.7,12.5,30.2,32.9,32.7,51c0.9,6.5,3.8,12.1,8.1,15.7c3.6,3,8.7,4.6,13.8,4.6c3.4,0,6.8-0.7,9.7-2.1C70.6,66,75,59.4,76.1,51
		C78.4,34.3,71.2,15.3,58.6,4.9z M58.9,66.3c-5.3,1.2-11.5,0.1-15.3-3.1c-3.4-2.8-5.7-7.4-6.5-12.8c-2.1-15.6,5-33.5,16.8-42.8
		C55.8,11.7,67.8,38.7,58.9,66.3z M71.6,50.4c-0.8,5.9-3.5,10.7-7.4,13.5c5.2-20,0.8-39-2.9-49.7C69.3,24,73.4,37.9,71.6,50.4z"/>
	<path class="st0" d="M79.2,125.6c-2,0-3.8-0.6-5-1.9c-2-2-2.4-5.2-1.2-9c1.1-3.3,3.3-6.7,6.3-9.7c3-3,7-5.8,10.7-7.4
		c5.9-2.6,8.9-1.5,10.4,0c1.4,1.4,2.6,4.4,0,10.4c-1.6,3.7-4.4,7.7-7.4,10.7C88.4,123.1,83.3,125.6,79.2,125.6z M96.2,100.5
		c-0.9,0-2.3,0.3-4.4,1.2c-3.2,1.4-6.7,3.8-9.3,6.5c-2.5,2.5-4.4,5.4-5.2,7.9c-0.7,2-0.6,3.7,0.1,4.4c1.5,1.5,7,0.2,12.4-5.1
		c2.6-2.6,5-6.1,6.5-9.3c1.5-3.3,1.3-5,1-5.4C97,100.6,96.7,100.5,96.2,100.5z"/>
	<path class="st0" d="M95.2,82.7c-4,0-7.9-3.5-9.2-8.5c-1.4-5.7,1.2-11.2,5.8-12.3c4.6-1.1,9.4,2.6,10.8,8.3c0,0,0,0,0,0
		c1.4,5.7-1.2,11.2-5.8,12.3C96.3,82.6,95.7,82.7,95.2,82.7z M93.5,66.2c-0.2,0-0.4,0-0.6,0.1c-2.1,0.5-3.3,3.7-2.5,6.9
		c0.8,3.2,3.2,5.5,5.4,5c2.1-0.5,3.3-3.7,2.5-6.9l0,0C97.6,68.3,95.5,66.2,93.5,66.2z"/>
	<circle class="st0" cx="42.8" cy="44" r="2.3"/>
	<circle class="st0" cx="48.1" cy="55.9" r="2.3"/>
	<circle class="st0" cx="51.5" cy="46.9" r="2.3"/>
	<path class="st0" d="M55.9,102.1c-3.3,0-6.9-0.5-10-1.3c-4.1-1.1-7.7-3-10.3-5.4c-2.9-2.7-4.1-5.7-3.4-8.4
		c1.5-5.3,9.6-7.3,18.8-4.7c4.1,1.1,8.5,3.3,11.7,5.6c5.2,3.9,5.7,7,5.1,9c-0.5,2-2.6,4.4-9,5.1C57.9,102.1,56.9,102.1,55.9,102.1z
		 M43.4,85.6c-3.9,0-6.5,1.2-6.9,2.5c-0.3,1,0.5,2.5,2.1,3.9c2,1.8,5.1,3.4,8.5,4.3l0,0c3.6,1,7.8,1.4,11.3,1.1
		c3.6-0.3,5-1.4,5.1-1.8c0.1-0.4-0.6-2-3.5-4.2c-2.8-2.1-6.6-3.9-10.2-4.9C47.5,85.9,45.3,85.6,43.4,85.6z"/>
	<path class="st0" d="M50,132.7c-3.1,0-5.9-1.3-7.3-3.8c-1.2-2.1-1.3-4.6-0.2-7.1c1-2.3,2.8-4.3,5.1-5.6c2.4-1.4,5-1.9,7.4-1.6
		c2.6,0.3,4.8,1.7,6,3.7c1.2,2.1,1.3,4.6,0.2,7.1c-1,2.3-2.8,4.3-5.1,5.6l0,0C54.2,132.2,52,132.7,50,132.7z M55.1,129.1L55.1,129.1
		L55.1,129.1z M53.8,119c-1.3,0-2.7,0.4-3.9,1.1c-1.5,0.9-2.7,2.1-3.3,3.5c-0.3,0.7-0.7,2,0,3.1c1.1,1.9,4.4,2.1,7.3,0.4l0,0
		c1.5-0.9,2.7-2.1,3.3-3.5c0.3-0.7,0.7-2,0-3.1c-0.6-1.1-1.9-1.4-2.7-1.5C54.3,119,54.1,119,53.8,119z"/>
</g>
</svg>
