<?xml version="1.0" encoding="utf-8"?>
<!-- Generator: Adobe Illustrator 22.0.1, SVG Export Plug-In . SVG Version: 6.00 Build 0)  -->
<svg version="1.1" id="Layer_1" xmlns="http://www.w3.org/2000/svg" xmlns:xlink="http://www.w3.org/1999/xlink" x="0px" y="0px"
	 viewBox="0 0 135 135" style="enable-background:new 0 0 135 135;" xml:space="preserve">
<style type="text/css">
	.st0{fill:#383F4C;}
</style>
<g>
	<path class="st0" d="M105.3,62.2c-0.1-0.3-0.2-0.6-0.3-0.9c-0.4-1.2-1.7-1.8-2.8-1.4c-1.2,0.4-1.8,1.6-1.4,2.8
		c0.1,0.2,0.1,0.5,0.2,0.7c1.5,5.7-3.6,10.3-8.3,13.1V56.2c0-9.8-1.1-18.9-3.3-27.2c-2-7.9-4.7-15.9-10.4-21.3
		c-7-6.7-17.2-6.5-24,0.6c-4.8,5-8.3,12.6-10.7,23.3c-1.6,7.2-2.4,15.3-2.4,24.6v20.1c-4.5-2.9-9.3-7.3-7.8-12.9
		c0.1-0.2,0.1-0.5,0.2-0.7c0.4-1.2-0.3-2.4-1.4-2.8c-1.2-0.4-2.4,0.2-2.8,1.4c-0.1,0.3-0.2,0.6-0.3,0.9c-8.5,28.4-1,45.5,6.8,54.9
		c6.1,7.4,14.8,12.7,24.3,14.5c10.4,2,20.6-1.1,29.4-6.9c3.2-2.1,6-4.6,8.4-7.6C106.3,107.7,113.8,90.5,105.3,62.2z M77.5,12.7
		c3,3.6,4.9,8.2,6.3,13.1h-6.3V12.7z M77.5,53.7h4.7c1.2,0,2.2-1,2.2-2.2c0-1.2-1-2.2-2.2-2.2h-4.7V30.3h7.6
		c2,7.9,3.1,16.6,3.1,25.9v15.5H77.5V53.7z M58.2,11.4C62.5,7,68.2,6.1,73,8.8v17H62v-7.3c0-1.2-1-2.2-2.2-2.2c-1.2,0-2.2,1-2.2,2.2
		v7.3h-7C52.5,19.4,55,14.7,58.2,11.4z M62,49.2V30.3H73v18.9H62z M73,53.7v18H62v-18H73z M48.7,32.5c0.2-0.8,0.3-1.5,0.5-2.2h8.3
		v18.9H46.5C46.8,43.1,47.5,37.6,48.7,32.5z M46.4,78.4V56.2c0-0.8,0-1.7,0-2.5h11.1v18H51c-1.2,0-2.2,1-2.2,2.2
		c0,1.2,1,2.2,2.2,2.2h6.4v9.1c-3.3-2.4-7-4.5-11.1-6.6C46.4,78.6,46.4,78.5,46.4,78.4z M63.3,119.3c0.3,3.9,0.6,6.6,1,8.5
		c-8-1.6-17.7-5.3-24.4-13.5c-10.2-12.3-10.7-28-8.2-41.3c2.3,3.4,6.2,6.6,11.5,9.2c10.2,5.1,17.7,9.5,21.6,19.6
		c0,0.1,0.1,0.1,0.1,0.2l0.3,0.6C63.5,107.8,62.9,113.5,63.3,119.3z M67.5,96.9c-1.5-3-3.4-5.5-5.5-7.7v-13H73v4.7
		c0,1.2,1,2.2,2.2,2.2c1.2,0,2.2-1,2.2-2.2v-4.7h10.7V79C79.3,83.5,72,88.1,67.5,96.9z M95.1,114.2C87.8,123,77.2,126.6,69,128
		c-0.5-2.3-1-6.8-1.1-9.1c-0.5-6,0.4-11.9,2.4-17.1c3.9-10.1,11.4-14.5,21.6-19.6c5.3-2.7,9.2-5.8,11.5-9.2
		C105.8,86.3,105.3,101.9,95.1,114.2z"/>
	<circle class="st0" cx="78.9" cy="108.4" r="2.3"/>
	<circle class="st0" cx="55.6" cy="116.8" r="2.3"/>
	<circle class="st0" cx="73.8" cy="119.9" r="2.3"/>
</g>
</svg>
