<?xml version="1.0" encoding="utf-8"?>
<!-- Generator: Adobe Illustrator 22.0.1, SVG Export Plug-In . SVG Version: 6.00 Build 0)  -->
<svg version="1.1" id="Layer_1" xmlns="http://www.w3.org/2000/svg" xmlns:xlink="http://www.w3.org/1999/xlink" x="0px" y="0px"
	 viewBox="0 0 135 135" style="enable-background:new 0 0 135 135;" xml:space="preserve">
<style type="text/css">
	.st0{fill:#383F4C;}
	.st1{fill:#383F4C;stroke:#383F4C;stroke-width:4.5;stroke-linecap:round;stroke-linejoin:round;stroke-miterlimit:10;}
</style>
<g>
	<path class="st0" d="M111.8,32.1c0,0-0.1-0.1-0.1-0.1L97.8,15.9V5c0-1.2-1-2.2-2.2-2.2H39.8c-1.2,0-2.2,1-2.2,2.2
		c0,0,0,11.6,0,11.6c-1.6,1.8-3.1,3.5-4.7,5.3c-1.9,2.1-3.7,4.3-5.6,6.4c-1,1.1-2,2.2-3,3.3c-0.8,0.8-2,1.8-2,3.1c0,0,0,95.5,0,95.5
		c0,1.2,1,2.2,2.2,2.2h85.9c1.2,0,2.2-1,2.2-2.2V33.9C112.7,33.2,112.3,32.5,111.8,32.1z M95.9,20.6l9.9,11.5H86.7L95.9,20.6z
		 M42.1,7.2h51.2v7.9H42.1V7.2z M80.4,127.8H26.8V98.3L80.4,82V127.8z M80.4,77.3L26.8,93.6V71.9l53.6-16.3V77.3z M80.4,50.8
		L26.8,67.1V36.5h53.6V50.8z M30,32l11-12.4h50L80.9,32H30z M108.2,127.8H84.9V36.5h23.3V127.8z"/>
	<circle class="st0" cx="57.3" cy="116" r="2.3"/>
	<circle class="st0" cx="69.6" cy="109.7" r="2.3"/>
	<circle class="st0" cx="68.7" cy="121.5" r="2.3"/>
</g>
</svg>
