<?xml version="1.0" encoding="utf-8"?>
<!-- Generator: Adobe Illustrator 22.0.1, SVG Export Plug-In . SVG Version: 6.00 Build 0)  -->
<svg version="1.1" id="Layer_1" xmlns="http://www.w3.org/2000/svg" xmlns:xlink="http://www.w3.org/1999/xlink" x="0px" y="0px"
	 viewBox="0 0 135 135" style="enable-background:new 0 0 135 135;" xml:space="preserve">
<style type="text/css">
	.st0{fill:#383F4C;}
	.st1{fill:#383F4C;stroke:#383F4C;stroke-width:4.5;stroke-linecap:round;stroke-linejoin:round;stroke-miterlimit:10;}
</style>
<g>
	<circle class="st0" cx="22" cy="47" r="2.3"/>
	<path class="st0" d="M58.3,127.3c-0.2,0-0.5,0-0.7-0.1c-12.2-3.9-23.7-13-31.6-25.1C11.7,80-4.4,31.3,21.4,13.5l0.4-0.3
		c9.8-6.8,22.6-7,37-0.7c1.1,0.5,1.7,1.8,1.2,3c-0.5,1.1-1.8,1.7-3,1.2C43.9,10.9,33,11,24.4,16.9L24,17.2
		C11.1,26.1,11,43.8,13.3,57c2.8,16.2,10.3,33.1,16.5,42.6c7.3,11.2,17.9,19.7,29.2,23.3c1.2,0.4,1.8,1.6,1.5,2.8
		C60.1,126.7,59.2,127.3,58.3,127.3z"/>
	<path class="st0" d="M80.6,133c-0.1,0-0.2,0-0.3,0c-0.1,0-0.2,0-0.3,0c-12.4,0-23.3-4.5-31.6-12.9c-9.9-10.2-15.6-26.1-15.1-42.6
		C34.2,51.2,48.7,2,80,2c0,0,0,0,0,0h0.5c31.4,0,45.8,49.1,46.6,75.4c0.5,16.4-5.1,32.3-15.1,42.6C103.9,128.5,93,133,80.6,133z
		 M80,6.5C64.3,6.5,54.3,21,48.6,33.2c-6.9,14.9-10.4,33-10.7,44.4c-0.5,15.2,4.7,29.9,13.8,39.3c7.5,7.7,17,11.6,28.3,11.6
		c0.1,0,0.2,0,0.3,0c0.1,0,0.2,0,0.3,0c11.3,0,20.9-3.9,28.3-11.6c9.1-9.4,14.3-24.1,13.8-39.3c-0.3-11.4-3.8-29.5-10.7-44.4
		C106.4,21,96.3,6.5,80.6,6.5H80z"/>
	<path class="st0" d="M70.2,120.2c-0.4,0-0.8-0.1-1.2-0.3c-22.6-14-23.4-39.2-23.4-40.3c0-1.2,1-2.3,2.2-2.3c1.3,0,2.3,1,2.3,2.2
		l0,0c0,0.2,0.8,23.8,21.3,36.5c1.1,0.7,1.4,2,0.7,3.1C71.7,119.8,71,120.2,70.2,120.2z"/>
	<circle class="st0" cx="28.6" cy="39.9" r="2.3"/>
	<circle class="st0" cx="22.2" cy="30.8" r="2.3"/>
</g>
</svg>
