<?xml version="1.0" encoding="utf-8"?>
<!-- Generator: Adobe Illustrator 22.0.1, SVG Export Plug-In . SVG Version: 6.00 Build 0)  -->
<svg version="1.1" id="Layer_1" xmlns="http://www.w3.org/2000/svg" xmlns:xlink="http://www.w3.org/1999/xlink" x="0px" y="0px"
	 viewBox="0 0 135 135" style="enable-background:new 0 0 135 135;" xml:space="preserve">
<style type="text/css">
	.st0{fill:none;stroke:#383F4C;stroke-width:4.5;stroke-linecap:round;stroke-linejoin:round;stroke-miterlimit:10;}
	.st1{fill:#383F4C;}
</style>
<g>
	<path class="st0" d="M47.1,10.2"/>
	<path class="st1" d="M93.3,51.5V5.6c0-1.2-1-2.2-2.2-2.2c-1.2,0-2.2,1-2.2,2.2V13L77.9,24.8V10.2c0-1.2-1-2.2-2.2-2.2
		c-1.2,0-2.2,1-2.2,2.2v19.2c0,0.1,0,0.2,0,0.2l-5.7,6.1l-4.8-5.2V16.9c0-1.2-1-2.2-2.2-2.2c-1.2,0-2.2,1-2.2,2.2v8.8L46.6,13V4.8
		c0-1.2-1-2.2-2.2-2.2c-1.2,0-2.2,1-2.2,2.2v46.7c0,0.1,0,0.3,0,0.4c0,0.1,0,0.3,0,0.4c0,12.5,10.3,22.8,23.3,23.8v21L45.6,75.4
		c-0.8-0.9-2.3-1-3.2-0.2c-0.9,0.8-1,2.3-0.1,3.2l23.2,25.3v10.7L45.6,92.7c-0.8-0.9-2.3-1-3.2-0.1c-0.9,0.8-1,2.3-0.1,3.2
		l23.2,25.3v9.1c0,1.2,1,2.2,2.2,2.2s2.2-1,2.2-2.2V76.1C83,75,93.3,64.8,93.3,52.3c0-0.1,0-0.3,0-0.4v0
		C93.3,51.7,93.3,51.6,93.3,51.5z M46.6,19.6l18.8,20.2v15.1L46.6,34.7V19.6z M46.6,52.3c0-0.1,0-0.3,0-0.4c0-0.1,0-0.3,0-0.4V41.3
		l18.8,20.2v10.1C54.9,70.6,46.6,62.3,46.6,52.3z M70,39.9l18.8-20.2v15.1L70,54.9V39.9z M88.8,51.9c0,0.1,0,0.3,0,0.4
		c0,10-8.3,18.3-18.8,19.3V61.5l18.8-20.2v10.1C88.8,51.6,88.8,51.7,88.8,51.9L88.8,51.9z"/>
	<path class="st1" d="M78.1,132.5c-1.2,0-2.2-1-2.2-2.2V83.5c0-1.2,1-2.2,2.2-2.2s2.2,1,2.2,2.2v46.7
		C80.4,131.5,79.4,132.5,78.1,132.5z"/>
	<circle class="st1" cx="52.7" cy="54.9" r="2.3"/>
	<circle class="st1" cx="83.9" cy="32.7" r="2.3"/>
	<circle class="st1" cx="60.1" cy="40.9" r="2.3"/>
</g>
</svg>
