<?xml version="1.0" encoding="utf-8"?>
<!-- Generator: Adobe Illustrator 22.0.1, SVG Export Plug-In . SVG Version: 6.00 Build 0)  -->
<svg version="1.1" id="Layer_1" xmlns="http://www.w3.org/2000/svg" xmlns:xlink="http://www.w3.org/1999/xlink" x="0px" y="0px"
	 viewBox="0 0 135 135" style="enable-background:new 0 0 135 135;" xml:space="preserve">
<style type="text/css">
	.st0{fill:#383F4C;}
</style>
<g>
	<circle class="st0" cx="25.4" cy="75.6" r="2.3"/>
	<circle class="st0" cx="85.1" cy="42.6" r="3.9"/>
	<path class="st0" d="M106.9,34.4L106.9,34.4c7.1-1.8,12.2-8.4,12.2-15.9c0-9.3-7.4-16.7-16.5-16.7H40.2C39,1.8,38,2.8,38,4
		s1,2.2,2.2,2.2h62.4c5.8,0,10.7,4.1,11.8,9.6c-2.5-3.5-7-5.9-12.2-5.9H49.4c-1.2,0-2.2,1-2.2,2.2s1,2.2,2.2,2.2h52.8
		c5.4,0,9.8,3.5,9.8,7.9c0,3.4-2.8,6.5-6.7,7.5c-0.1,0-0.2,0-0.2,0H67.5C39,30,15.9,53.1,15.9,81.6s23.1,51.6,51.6,51.6
		c21.5,0,26.1-18.1,26.2-18.3c0.2-0.7,0-1.4-0.4-1.9s-1.1-0.9-1.7-0.9l-22-0.3c-7.2,0-13.7-3.3-18-8.5H61c1.2,0,2.2-1,2.2-2.2
		s-1-2.2-2.2-2.2H48.6c-1.2-2.3-2-4.9-2.3-7.6h11.3c1.2,0,2.2-1,2.2-2.2s-1-2.2-2.2-2.2H46.2c0.2-3,1-5.9,2.2-8.5H61
		c1.2,0,2.2-1,2.2-2.2S62.2,74,61,74h-9.8c4.3-5.4,10.9-8.8,18.3-8.8c28.4,0,35.8-23.8,37.4-30.6 M41.6,88.3
		c0,15.4,12.5,27.9,27.9,27.9l18.8,0.3c-0.6,1.3-1.6,3.1-3.1,4.8H62.7c-1.2,0-2.2,1-2.2,2.2s1,2.2,2.2,2.2h16.9
		c-3,1.7-7,2.9-12.1,2.9c-26,0-47.1-21.1-47.1-47.1c0-24.2,18.3-44.2,41.8-46.8v26.5v0.1C50.3,64.6,41.6,75.4,41.6,88.3z M69.5,60.4
		c-1,0-1.9,0-2.8,0.1v-26c0.3,0,0.5,0,0.8,0h34.8C100.6,41.5,93.7,60.4,69.5,60.4z"/>
	<circle class="st0" cx="27.7" cy="63.6" r="2.3"/>
	<circle class="st0" cx="33.8" cy="54.4" r="2.3"/>
</g>
</svg>
