<?xml version="1.0" encoding="utf-8"?>
<!-- Generator: Adobe Illustrator 22.0.1, SVG Export Plug-In . SVG Version: 6.00 Build 0)  -->
<svg version="1.1" id="Layer_1" xmlns="http://www.w3.org/2000/svg" xmlns:xlink="http://www.w3.org/1999/xlink" x="0px" y="0px"
	 viewBox="0 0 135 135" style="enable-background:new 0 0 135 135;" xml:space="preserve">
<style type="text/css">
	.st0{fill:#383F4C;}
	.st1{fill:#383F4C;stroke:#383F4C;stroke-width:4.5;stroke-linecap:round;stroke-linejoin:round;stroke-miterlimit:10;}
</style>
<g>
	<path class="st0" d="M24.2,95.2c-0.9,0-1.8-0.6-2.1-1.5c-2.7-7.3-1.4-17,3.4-24.7c0.7-1.1,2-1.4,3.1-0.7c1.1,0.7,1.4,2,0.7,3.1
		c-4.1,6.5-5.3,14.7-3,20.7c0.4,1.2-0.2,2.5-1.3,2.9C24.7,95.1,24.5,95.2,24.2,95.2z"/>
	<path class="st0" d="M56.4,133.4c-13.4,0-27-9.8-34-18.9c-10.5-13.7-12.6-31.6-5.6-46.7c0.2-0.5,0.4-0.9,0.7-1.4
		c2-3.9,4.2-6.7,6.9-8.6c3.6-2.6,8-3.2,11.4-1.7c2.9,1.3,5.2,4.1,6.2,7.7c1.2,4.4,0.7,8.8,0.3,13c-0.3,2.4-0.5,4.7-0.5,6.9
		c0.2,9.3,7.4,11.9,15.7,14.9c5.3,1.9,10.7,3.8,14.5,7.7c3.3,3.3,5.1,7.6,4.8,11.8c-0.3,5-3.7,9.8-8.8,12.5
		C64.2,132.6,60.3,133.4,56.4,133.4z M31.8,59.8c-1.6,0-3.3,0.6-4.9,1.7c-2,1.4-3.8,3.7-5.5,7c-0.2,0.4-0.4,0.8-0.6,1.2c0,0,0,0,0,0
		c-6.3,13.6-4.3,29.7,5.1,42.1c7.9,10.3,26,22.2,40,14.9c3.6-1.9,6.1-5.3,6.4-8.8c0.2-2.8-1.1-5.9-3.5-8.3
		c-3.1-3.2-7.9-4.9-12.9-6.7c-8.6-3.1-18.4-6.6-18.7-19.1c-0.1-2.5,0.2-5,0.5-7.5c0.5-4,0.9-7.8-0.1-11.3c-0.7-2.3-2-4.1-3.7-4.8
		C33.3,59.9,32.5,59.8,31.8,59.8z M18.8,68.7L18.8,68.7L18.8,68.7z"/>
	<g>
		<path class="st0" d="M122.3,45.4c-2.5-18.7-18.1-32.9-36.7-34V3.9c0-1.2-1-2.2-2.2-2.2c-1.2,0-2.2,1-2.2,2.2v7.6
			c-18.6,1.1-34.2,15.3-36.7,34c-0.3,1.9,0.3,3.8,1.6,5.2c0.9,1.1,2.2,1.8,3.5,2.1l0,4.5c0,5.2-0.1,10.3-0.1,15.5
			c0,10.2,7.5,19.4,18.8,22.8l5,1.5c3.2,1,6.4,2,9.5,2.9c0.2,0.1,0.4,0.1,0.7,0.1c0.2,0,0.4,0,0.6-0.1l14.4-4.3
			c11.3-3.4,18.9-12.6,18.9-22.9V52.7c1.3-0.3,2.5-1,3.4-2.1C121.9,49.2,122.5,47.3,122.3,45.4z M112.8,72.8
			c0,8.3-6.3,15.7-15.7,18.6l-13.7,4.1c-3-0.9-5.9-1.8-8.9-2.7l-5-1.5c-9.3-2.9-15.6-10.3-15.6-18.5c0-5.1,0-10.3,0.1-15.4l0-4.4
			h58.7V72.8z M117.3,47.7c-0.4,0.5-0.9,0.7-1.6,0.7H50.9c-0.6,0-1.2-0.2-1.6-0.7c-0.4-0.5-0.6-1.1-0.5-1.7
			C51.2,28.8,66,15.8,83.3,15.8c17.4,0,32.2,13,34.5,30.1C117.9,46.6,117.7,47.2,117.3,47.7z"/>
	</g>
	<circle class="st0" cx="95.4" cy="31" r="2.3"/>
	<circle class="st0" cx="100.7" cy="43.2" r="2.3"/>
	<circle class="st0" cx="108.3" cy="34.8" r="2.3"/>
</g>
</svg>
